<svg height="59.882" viewBox="0 0 221.078 59.882" width="221.078" xmlns="http://www.w3.org/2000/svg" xmlns:xlink="http://www.w3.org/1999/xlink"><linearGradient id="a" gradientUnits="objectBoundingBox" x1=".5" x2=".5" y1="1.22" y2="-.341"><stop offset="0" stop-color="#e9670d"/><stop offset="1" stop-color="#e0113a"/></linearGradient><path d="m1145.292 5332.22v-.06a8.08 8.08 0 0 1 14.164-5.341l-1.531 1.619a6.264 6.264 0 0 0 -4.711-2.34 5.726 5.726 0 0 0 -5.552 6v.061a5.8 5.8 0 0 0 5.7 6.032 6.4 6.4 0 0 0 4.741-2.312l1.471 1.382a8.026 8.026 0 0 1 -14.284-5.042z" transform="translate(-1069.296 -5305.605)"/><path d="m1162.6 5332.22v-.06a8.088 8.088 0 0 1 16.175-.061v.061a8.056 8.056 0 0 1 -8.133 8.1 7.948 7.948 0 0 1 -8.042-8.04zm13.8 0v-.06a5.871 5.871 0 0 0 -5.761-6.062 5.726 5.726 0 0 0 -5.671 6v.061a5.82 5.82 0 0 0 5.732 6.032 5.723 5.723 0 0 0 5.708-5.971z" transform="translate(-1072.176 -5305.605)"/><path d="m1184.31 5324.387h2.311v2.7a5.875 5.875 0 0 1 5.311-3.03c3.751 0 5.942 2.519 5.942 6.211v9.631h-2.312v-9.06c0-2.882-1.559-4.682-4.29-4.682a4.564 4.564 0 0 0 -4.652 4.862v8.88h-2.311z" transform="translate(-1075.787 -5305.605)"/><path d="m1202.236 5337.934 1.17-1.649a9.073 9.073 0 0 0 5.373 1.98c1.86 0 3.209-.961 3.209-2.461v-.061c0-1.562-1.831-2.161-3.871-2.731-2.43-.689-5.133-1.529-5.133-4.381v-.06c0-2.672 2.222-4.441 5.282-4.441a10.6 10.6 0 0 1 5.582 1.711l-1.05 1.74a8.769 8.769 0 0 0 -4.592-1.5c-1.832 0-3 .959-3 2.249v.061c0 1.471 1.92 2.04 3.992 2.671 2.4.721 4.981 1.65 4.981 4.442v.06c0 2.941-2.431 4.649-5.521 4.649a10.668 10.668 0 0 1 -6.422-2.279z" transform="translate(-1078.769 -5305.617)"/><path d="m1218.721 5334.087v-9.634h2.312v9.063c0 2.881 1.56 4.681 4.29 4.681a4.58 4.58 0 0 0 4.651-4.861v-8.883h2.282v15.513h-2.282v-2.7a5.911 5.911 0 0 1 -5.311 3.031c-3.751.003-5.942-2.52-5.942-6.21z" transform="translate(-1081.511 -5305.671)"/><path d="m1238.734 5316.786h2.311v21.9h-2.311z" transform="translate(-1084.841 -5304.395)"/><path d="m1245.789 5334.923v-9.362h-2.16v-2.042h2.16v-4.681h2.312v4.681h4.921v2.042h-4.922v9.063a2.3 2.3 0 0 0 2.609 2.58 4.87 4.87 0 0 0 2.252-.541v1.979a5.8 5.8 0 0 1 -2.791.661c-2.491-.003-4.381-1.23-4.381-4.38z" transform="translate(-1085.655 -5304.736)"/><path d="m1255.686 5335.419v-.06c0-3.332 2.7-5.072 6.632-5.072a16.265 16.265 0 0 1 4.743.659v-.479c0-2.761-1.681-4.2-4.592-4.2a10.794 10.794 0 0 0 -4.711 1.109l-.69-1.889a12.72 12.72 0 0 1 5.641-1.321 6.891 6.891 0 0 1 5.012 1.71 6.135 6.135 0 0 1 1.62 4.561v9.481h-2.28v-2.308a6.81 6.81 0 0 1 -5.582 2.64c-2.912 0-5.793-1.65-5.793-4.831zm11.4-1.2v-1.439a15.9 15.9 0 0 0 -4.531-.661c-2.881 0-4.532 1.261-4.532 3.122v.059c0 1.95 1.8 3.092 3.9 3.092 2.856-.001 5.166-1.712 5.166-4.174z" transform="translate(-1087.661 -5305.623)"/><path d="m1275.232 5324.387h2.311v2.7a5.873 5.873 0 0 1 5.312-3.03c3.75 0 5.941 2.519 5.941 6.211v9.631h-2.311v-9.06c0-2.882-1.56-4.682-4.291-4.682a4.564 4.564 0 0 0 -4.651 4.862v8.88h-2.311z" transform="translate(-1090.913 -5305.605)"/><path d="m1295.246 5334.923v-9.362h-2.162v-2.042h2.162v-4.681h2.312v4.681h4.921v2.042h-4.921v9.063a2.3 2.3 0 0 0 2.609 2.58 4.87 4.87 0 0 0 2.252-.541v1.979a5.8 5.8 0 0 1 -2.791.661c-2.493-.003-4.382-1.23-4.382-4.38z" transform="translate(-1093.882 -5304.736)"/><path d="m1305 5337.934 1.171-1.649a9.074 9.074 0 0 0 5.37 1.98c1.862 0 3.212-.961 3.212-2.461v-.061c0-1.562-1.832-2.161-3.872-2.731-2.431-.689-5.13-1.529-5.13-4.381v-.06c0-2.672 2.22-4.441 5.281-4.441a10.6 10.6 0 0 1 5.581 1.711l-1.05 1.74a8.767 8.767 0 0 0 -4.592-1.5c-1.831 0-3 .959-3 2.249v.061c0 1.471 1.921 2.04 3.991 2.671 2.4.721 4.981 1.65 4.981 4.442v.06c0 2.941-2.431 4.649-5.521 4.649a10.674 10.674 0 0 1 -6.422-2.279z" transform="translate(-1095.864 -5305.617)"/><path d="m1145.352 5338.907-12.816.03.033 7.321a16.96 16.96 0 0 1 -9.273 2.729 17.124 17.124 0 1 1 11.413-29.885l8.551-9.55a29.927 29.927 0 0 0 -43.5 3.812 29.926 29.926 0 0 0 -43.5-3.812l-2.134 1.912v40.8l2.134 1.912a29.926 29.926 0 0 0 43.5-3.815 29.883 29.883 0 0 0 23.54 11.439h.017a29.862 29.862 0 0 0 19.947-7.629l2.14-1.918zm-69.123 10.08a16.969 16.969 0 0 1 -9.28-2.732v-28.781a16.967 16.967 0 0 1 9.28-2.734 17.124 17.124 0 1 1 0 34.248z" fill="url(#a)" transform="translate(-1054.131 -5301.922)"/></svg>