<svg height="62.145" viewBox="0 0 62.144 62.145" width="62.144" xmlns="http://www.w3.org/2000/svg"><path d="m770.479 3799.34.03-.026-.11-.08a31.04 31.04 0 0 0 -49.624.2c-.109.084-.216.17-.318.256.027.022.056.044.083.067a31.072 31.072 0 1 0 49.94-.414zm-22.818 46.36q-.99.072-2 .073-1.348 0-2.665-.128c-2.717-.959-5.261-3.521-7.335-7.459a32.674 32.674 0 0 1 -1.981-4.657 53.157 53.157 0 0 1 10.32-1.247v13.19h2.92v-13.2a53.66 53.66 0 0 1 10.249 1.169 32.773 32.773 0 0 1 -2.011 4.744c-2.114 4.015-4.719 6.599-7.497 7.515zm-19.085-27.071a53.336 53.336 0 0 0 1.541 12.409 35.286 35.286 0 0 0 -4.107 1.495 25.352 25.352 0 0 0 -2.975 1.541 27.6 27.6 0 0 1 -5.119-15.444zm14.424-28.239q.5-.048 1-.078v12.755a53.95 53.95 0 0 1 -10.12-1.135 32.119 32.119 0 0 1 1.78-4.083c2.075-3.938 4.62-6.499 7.34-7.459zm12.163 7.459a31.994 31.994 0 0 1 1.759 4.024 53.359 53.359 0 0 1 -10 1.182v-12.765c.248.012.494.026.739.043 2.778.914 5.383 3.499 7.498 7.517zm-8.238 8.525a56.539 56.539 0 0 0 10.991-1.326 49.226 49.226 0 0 1 1.568 10.471h-12.563zm-2.92.01v9.135h-12.66a49.191 49.191 0 0 1 1.552-10.411 57.042 57.042 0 0 0 11.103 1.277zm-12.711 12.24h12.706v10.333a56.406 56.406 0 0 0 -11.262 1.38 50.654 50.654 0 0 1 -1.448-11.712zm15.632 10.324v-10.324h12.61a50.692 50.692 0 0 1 -1.426 11.623 56.938 56.938 0 0 0 -11.189-1.298zm15.325-10.324h11.162a27.593 27.593 0 0 1 -5.141 15.476 25.134 25.134 0 0 0 -3.026-1.572 35.934 35.934 0 0 0 -4.506-1.611 53.467 53.467 0 0 0 1.506-12.292zm11.057-3.1h-11.108a52.031 52.031 0 0 0 -1.658-11.148 35.968 35.968 0 0 0 4.346-1.566 25.42 25.42 0 0 0 2.918-1.506 27.61 27.61 0 0 1 5.494 14.216zm-7.694-16.781a22.526 22.526 0 0 1 -2.062 1.028 32.394 32.394 0 0 1 -3.984 1.434 34.774 34.774 0 0 0 -2-4.617 23.876 23.876 0 0 0 -3.437-5 27.794 27.794 0 0 1 11.478 7.151zm-29.132-6.914a24.243 24.243 0 0 0 -3.218 4.759 34.893 34.893 0 0 0 -2.027 4.689 32.893 32.893 0 0 1 -4.242-1.507q-.818-.358-1.546-.745a27.833 27.833 0 0 1 11.028-7.199zm-10.824 10.98a36 36 0 0 0 4.61 1.64 52.049 52.049 0 0 0 -1.638 11.075h-10.6a27.6 27.6 0 0 1 5.262-13.9 26.192 26.192 0 0 0 2.361 1.182zm-.515 33.873a22.685 22.685 0 0 1 2.208-1.112 32.2 32.2 0 0 1 3.706-1.35 35.474 35.474 0 0 0 2.208 5.229 24.209 24.209 0 0 0 3.218 4.759 27.829 27.829 0 0 1 -11.345-7.53zm28.987 7.771a23.893 23.893 0 0 0 3.437-5 35.639 35.639 0 0 0 2.247-5.345 32.758 32.758 0 0 1 4.1 1.465 22.687 22.687 0 0 1 2.258 1.139 27.823 27.823 0 0 1 -12.047 7.737z" fill="#fff" transform="translate(-714.59 -3786.943)"/></svg>