<svg height="66.984" viewBox="0 0 98.668 66.984" width="98.668" xmlns="http://www.w3.org/2000/svg"><g fill="#fff"><path d="m387.924 4037.733a7.929 7.929 0 0 0 -1.685-6.1l-8.954-10.562a7.956 7.956 0 0 0 -11.2-.923l-4.611 3.589-.293-.093c-3.083-.982-13.554-4.126-18.854-3.406a15.659 15.659 0 0 0 -2.743.676l-.179.059-.179-.057c-7.841-2.459-11.568-.966-14.563.233l-.088.036a11.128 11.128 0 0 1 -4.621 1.115l-2.137-.016c-5.011-.035-6.357-.045-7.414-.814-4.3-3.132-7.81-3-11.054.426l-7.309 9.965c-3.439 3.711-.945 9.012.287 11.119l3.716 6.471.121.113a7.848 7.848 0 0 0 2.343 1.527l.805.342-3.653 3.6a4.751 4.751 0 0 0 -.052 6.711l1.816 1.843a4.681 4.681 0 0 0 1.776 1.13l.5.178-.123.511a4.719 4.719 0 0 0 1.221 4.451l1.816 1.843a4.708 4.708 0 0 0 3.345 1.412 4.8 4.8 0 0 0 1.794-.334l.549-.218.213.55a4.707 4.707 0 0 0 1.04 1.612l1.815 1.844a4.714 4.714 0 0 0 3.383 1.413 4.781 4.781 0 0 0 2.078-.482l.554-.27.24.569a4.7 4.7 0 0 0 .985 1.48l1.815 1.844a4.753 4.753 0 0 0 6.712.052l1.56-1.537 2.872 2.416a6.184 6.184 0 0 0 2.6 1.467l.115.046a6.215 6.215 0 0 0 7.43-1.25 6.132 6.132 0 0 0 1.23-1.972l.313-.8 1.312 1.227a6.131 6.131 0 0 0 2.577 1.446l.116.046a6.193 6.193 0 0 0 8.943-4.118l.149-.666.636.25a6.189 6.189 0 0 0 8.41-6.778l-.123-.772.775.1a5.935 5.935 0 0 0 1.014.054 6.21 6.21 0 0 0 4.042-10.746l-2.142-2.005.951-.3a7.881 7.881 0 0 0 2.719-1.5l12.4-12.477a8.822 8.822 0 0 0 2.889-5.57zm-86.2 24.5a2.176 2.176 0 0 1 -.917.205h-.05a2.164 2.164 0 0 1 -1.506-.647l-1.816-1.844a2.187 2.187 0 0 1 .023-3.088l9.649-9.5a2.194 2.194 0 0 1 3.088.025l1.815 1.842a2.189 2.189 0 0 1 .4 2.483l-.044.091-.072.071-10.481 10.32zm5.8 7.695a2.125 2.125 0 0 1 -1.481.625h-.09a2.154 2.154 0 0 1 -1.516-.647l-1.816-1.844a2.188 2.188 0 0 1 .023-3.088l.784-.756a4.741 4.741 0 0 0 .709-.575l9.649-9.5a4.732 4.732 0 0 0 .576-.69l.072-.086.905-.891a2.194 2.194 0 0 1 3.088.025l1.816 1.843a2.195 2.195 0 0 1 -.025 3.089zm8.755 4.865a2.187 2.187 0 0 1 -3.088-.024l-1.816-1.844a2.186 2.186 0 0 1 .024-3.088l8.778-8.643a2.169 2.169 0 0 1 1.531-.627h.017a2.171 2.171 0 0 1 1.539.651l1.816 1.844a2.187 2.187 0 0 1 -.024 3.088zm13.359.315-4.3 4.239a2.171 2.171 0 0 1 -1.532.627h-.017a2.167 2.167 0 0 1 -1.54-.651l-1.815-1.844a2.185 2.185 0 0 1 .024-3.088l4.3-4.239a2.224 2.224 0 0 1 1.536-.624 2.171 2.171 0 0 1 1.552.648l1.815 1.843a2.187 2.187 0 0 1 -.022 3.087zm40.065-11.658a4.2 4.2 0 0 1 -4.926 4.258l-.118-.022-.1-.066a4.242 4.242 0 0 1 -.564-.44c-8.119-7.676-10.983-10.466-12.009-11.511l-.013.019-.463-.28a1.6 1.6 0 0 0 -.828-.236 1.538 1.538 0 0 0 -1.565 1.507 1.457 1.457 0 0 0 .283.859l.333.458 11.067 10.358a4.186 4.186 0 0 1 -3.6 7.177l-.118-.022-.1-.065a4.191 4.191 0 0 1 -.565-.441l-.443-.414-.048-.122a6.133 6.133 0 0 0 -1.521-2.245l-10.09-8.749-.236-.108a1.6 1.6 0 0 0 -.667-.149 1.538 1.538 0 0 0 -1.564 1.507 1.476 1.476 0 0 0 .6 1.177l.414.314-.024.04 10.03 8.922.039.189a4.328 4.328 0 0 1 .089.725 4.175 4.175 0 0 1 -4.923 4.257l-.118-.021-.1-.065a4.209 4.209 0 0 1 -.566-.44l-4.264-3.991c-.063-.067-2.949-3.252-3.713-3.987l-.094-.086a1.567 1.567 0 0 0 -1.169-.517 1.539 1.539 0 0 0 -1.565 1.507 1.505 1.505 0 0 0 .929 1.373l.094.041 2.349 2.2.041.169a4.178 4.178 0 0 1 -4.054 5.194 4.309 4.309 0 0 1 -.749-.066l-.118-.022-.1-.066a4.1 4.1 0 0 1 -.566-.44l-3.837-3.241.965-.949a4.753 4.753 0 0 0 .053-6.712l-1.816-1.843a4.733 4.733 0 0 0 -1.529-1.041l-.554-.233.248-.546a4.777 4.777 0 0 0 -.933-5.293l-1.815-1.845a4.712 4.712 0 0 0 -1.651-1.083l-.542-.211.208-.543a4.748 4.748 0 0 0 -1.04-5.038l-1.816-1.843a4.713 4.713 0 0 0 -3.345-1.412 4.84 4.84 0 0 0 -1.306.174l-.517.142-.186-.5a4.7 4.7 0 0 0 -1.06-1.673l-1.815-1.843a4.757 4.757 0 0 0 -6.711-.052l-3.105 3.059-.212.018c-.116.014-.174.02-.233.022a4.823 4.823 0 0 1 -3.278-1.139l-.076-.065-3.967-6.765c-1.313-2.74-2.018-4.665-.123-6.7l7.309-9.966c1.854-1.95 3.511-2.532 6.956-.023 1.884 1.373 4.385 1.386 9.368 1.411q.932.005 1.979.013a14.967 14.967 0 0 0 5.887-1.373 13.933 13.933 0 0 1 7.309-1.281l1.773.167-1.526.916c-3.895 2.337-6.758 5.039-8.06 7.605a6.47 6.47 0 0 0 -.127 6.27c2.505 4.623 7.674 2.508 11.827.806 3.56-1.457 6.165-2.394 7.331-1.207 6.517 6.628 19.18 19.251 20.358 19.836l.108.042.068.072 3.5 3.278a4.155 4.155 0 0 1 1.323 2.908zm15.148-26.091a5.633 5.633 0 0 1 -1.856 3.608l-12.435 12.506a4.869 4.869 0 0 1 -5.505.427l-.105-.078-2.236-2.092c-2.06-2.122-12.425-12.8-16.161-16.6a4.886 4.886 0 0 0 -3.671-1.466c-2.2 0-4.662 1.006-7.038 1.979-5.3 2.171-7.008 2.3-7.935.584a3.474 3.474 0 0 1 .166-3.4c2.263-4.463 10.5-8.957 14.673-9.526 4.513-.615 14.951 2.423 18.592 3.645l.839.282 5.926-4.733a4.854 4.854 0 0 1 6.821.573l8.954 10.564a4.832 4.832 0 0 1 .972 3.726z" transform="translate(-289.809 -4017.782)"/><path d="m337.071 4084.669a6.727 6.727 0 0 1 -3.092-.76l-.068-.027a6.68 6.68 0 0 1 -2.778-1.573l-2.513-2.114-1.244 1.225a5.24 5.24 0 0 1 -7.4-.057l-1.815-1.843a5.181 5.181 0 0 1 -1.086-1.633l-.04-.094-.093.045a5.277 5.277 0 0 1 -2.291.53 5.2 5.2 0 0 1 -3.73-1.558l-1.816-1.844a5.19 5.19 0 0 1 -1.147-1.778l-.035-.092-.092.036a5.249 5.249 0 0 1 -5.665-1.188l-1.816-1.843a5.208 5.208 0 0 1 -1.347-4.908l.021-.085-.083-.029a5.168 5.168 0 0 1 -1.958-1.246l-1.816-1.844a5.24 5.24 0 0 1 .057-7.4l3.134-3.084-.135-.058a8.326 8.326 0 0 1 -2.488-1.62l-.208-.225-3.716-6.471c-1.282-2.194-3.872-7.724-.241-11.672l7.332-9.989c3.4-3.586 7.224-3.746 11.7-.485.93.677 2.242.686 7.129.719l2.137.017a10.592 10.592 0 0 0 4.39-1.062l.137-.054c3.064-1.228 6.88-2.759 14.888-.246l.03.01.029-.01a16.1 16.1 0 0 1 2.83-.7c5.408-.73 15.962 2.435 19.068 3.424l.049.016 4.408-3.432a8.44 8.44 0 0 1 11.867.993l8.954 10.563a8.416 8.416 0 0 1 1.8 6.471 9.344 9.344 0 0 1 -3.052 5.874l-12.386 12.452a8.362 8.362 0 0 1 -2.917 1.621l-.158.05 1.535 1.437a6.7 6.7 0 0 1 -4.358 11.589 6.112 6.112 0 0 1 -1.092-.058l-.128-.016.02.128a6.632 6.632 0 0 1 -1.711 5.655 6.711 6.711 0 0 1 -7.359 1.652l-.105-.042-.025.111a6.656 6.656 0 0 1 -1.633 3.095 6.705 6.705 0 0 1 -7.99 1.361l-.068-.028a6.615 6.615 0 0 1 -2.755-1.554l-.785-.735-.052.134a6.6 6.6 0 0 1 -1.329 2.128 6.735 6.735 0 0 1 -4.899 2.121zm-8.5-5.792 3.212 2.7a5.763 5.763 0 0 0 2.417 1.371l.212.083a5.725 5.725 0 0 0 6.848-1.151 5.64 5.64 0 0 0 1.133-1.816l.574-1.476 1.837 1.718a5.643 5.643 0 0 0 2.374 1.334l.213.084a5.727 5.727 0 0 0 6.848-1.153 5.689 5.689 0 0 0 1.393-2.64l.273-1.222 1.165.458a5.72 5.72 0 0 0 7.827-5.515 5.957 5.957 0 0 0 -.077-.732l-.226-1.415 1.421.183a5.5 5.5 0 0 0 .934.051 5.727 5.727 0 0 0 3.726-9.9l-2.749-2.573 1.743-.555a7.375 7.375 0 0 0 2.553-1.406l12.373-12.449a8.392 8.392 0 0 0 2.75-5.28 7.445 7.445 0 0 0 -1.573-5.723l-8.954-10.562a7.469 7.469 0 0 0 -10.509-.866l-4.829 3.76-.538-.171c-3.058-.974-13.439-4.095-18.641-3.387a15.1 15.1 0 0 0 -2.654.655l-.329.109-.33-.1c-7.675-2.409-11.312-.95-14.234.221l-.134.054a11.312 11.312 0 0 1 -4.765 1.131l-2.133-.016c-5.133-.036-6.512-.046-7.7-.907-4.107-2.994-7.314-2.888-10.392.345l-7.33 9.981c-3.216 3.47-.826 8.527.351 10.541l3.682 6.412.068.064a7.367 7.367 0 0 0 2.2 1.432l1.477.626-4.172 4.108a4.263 4.263 0 0 0 -.047 6.021l1.815 1.843a4.217 4.217 0 0 0 1.593 1.013l.907.324-.225.937a4.237 4.237 0 0 0 1.095 4l1.816 1.842a4.223 4.223 0 0 0 3 1.266 4.272 4.272 0 0 0 1.61-.3l1.006-.4.389 1.009a4.228 4.228 0 0 0 .933 1.446l1.815 1.844a4.23 4.23 0 0 0 3.035 1.267 4.288 4.288 0 0 0 1.865-.433l1.017-.494.44 1.041a4.194 4.194 0 0 0 .882 1.328l1.815 1.844a4.266 4.266 0 0 0 6.023.047zm7.176 3.229a4.715 4.715 0 0 1 -.834-.074l-.217-.039-.183-.12a4.64 4.64 0 0 1 -.631-.493l-4.227-3.57 1.345-1.325a4.264 4.264 0 0 0 .048-6.022l-1.816-1.842a4.226 4.226 0 0 0 -1.371-.935l-1.014-.428.454-1a4.286 4.286 0 0 0 -.836-4.75l-1.815-1.844a4.2 4.2 0 0 0 -1.481-.972l-.992-.388.381-1a4.262 4.262 0 0 0 -.932-4.522l-1.816-1.842a4.228 4.228 0 0 0 -3-1.267 4.354 4.354 0 0 0 -1.174.157l-.947.26-.342-.922a4.212 4.212 0 0 0 -.95-1.5l-1.816-1.844a4.233 4.233 0 0 0 -3-1.266 4.277 4.277 0 0 0 -3.02 1.219l-3.231 3.183-.388.031c-.118.014-.188.021-.258.023a5.283 5.283 0 0 1 -3.607-1.254l-.14-.119-4.01-6.836c-1.365-2.844-2.157-5.008-.078-7.254l7.333-9.991c1.947-2.049 3.9-2.776 7.6-.082 1.758 1.281 4.207 1.294 9.084 1.319h.131c.584 0 1.2.007 1.85.012a14.576 14.576 0 0 0 5.7-1.337 14.323 14.323 0 0 1 7.538-1.315l3.25.3-2.8 1.681c-3.816 2.291-6.613 4.922-7.875 7.408a6 6 0 0 0 -.133 5.817c2.3 4.24 7.034 2.3 11.213.587 3.852-1.576 6.48-2.5 7.864-1.1 7.727 7.859 19.1 19.112 20.21 19.734l.185.07.145.153 3.481 3.257a4.68 4.68 0 0 1 -4.021 8.013l-.218-.039-.185-.121a4.838 4.838 0 0 1 -.629-.491c-6.39-6.042-10.4-9.882-11.921-11.421l-.022-.011-.463-.28a1.1 1.1 0 0 0 -.575-.165 1.051 1.051 0 0 0 -1.078 1.019.967.967 0 0 0 .191.572l.305.422 11.032 10.325a4.673 4.673 0 0 1 -4.022 8.012l-.217-.038-.184-.121a4.581 4.581 0 0 1 -.631-.492l-.522-.489-.089-.224a5.649 5.649 0 0 0 -1.4-2.068l-10.023-8.691-.173-.079a1.076 1.076 0 0 0 -1.54.914 1 1 0 0 0 .41.79l.761.577-.041.069 9.849 8.761.072.348a4.719 4.719 0 0 1 .1.808 4.661 4.661 0 0 1 -5.495 4.752l-.217-.038-.183-.12a4.657 4.657 0 0 1 -.631-.492l-4.265-3.991c-.029-.031-.093-.1-.2-.216-1.9-2.092-3.089-3.363-3.52-3.776l-.084-.076a1.121 1.121 0 0 0 -.84-.39 1.05 1.05 0 0 0 -1.077 1.02 1.019 1.019 0 0 0 .633.925l.173.075 2.515 2.363.075.309a4.665 4.665 0 0 1 -4.528 5.8zm-.684-1.037h.02a3.692 3.692 0 0 0 4.245-4.53l-.008-.029-2.2-2.05a1.988 1.988 0 0 1 -1.22-1.819 2.026 2.026 0 0 1 2.052-1.994 2.05 2.05 0 0 1 1.528.675l.063.054c.456.438 1.655 1.724 3.574 3.831l.167.183 4.242 3.969a3.624 3.624 0 0 0 .5.388l.036.015a3.691 3.691 0 0 0 4.271-4.4l-.007-.032-10.21-9.082.007-.011-.068-.052a1.963 1.963 0 0 1 -.8-1.565 2.026 2.026 0 0 1 2.052-1.994 2.07 2.07 0 0 1 .87.194l.353.183 10.09 8.749a6.626 6.626 0 0 1 1.655 2.434l.008.02.363.339a3.583 3.583 0 0 0 .5.389l.035.014a3.7 3.7 0 0 0 3.186-6.341l-11.128-10.427-.333-.459a1.941 1.941 0 0 1 -.376-1.145 2.026 2.026 0 0 1 2.052-1.993 2.085 2.085 0 0 1 1.08.306l.078.047.075-.1.418.393c1.431 1.457 5.467 5.324 12 11.5a3.781 3.781 0 0 0 .5.387l.037.014a3.693 3.693 0 0 0 4.354-3.76 3.681 3.681 0 0 0 -1.168-2.58l-3.563-3.309c-1.445-.719-16.527-15.9-20.487-19.932-.952-.968-3.53-.021-6.8 1.318-4.1 1.681-9.726 3.984-12.44-1.026a6.941 6.941 0 0 1 .121-6.722c1.344-2.649 4.272-5.419 8.244-7.8l.253-.153-.294-.027a13.493 13.493 0 0 0 -7.068 1.243 15.426 15.426 0 0 1 -6.081 1.413l-1.853-.012h-.13c-5.088-.026-7.641-.038-9.654-1.5-3.176-2.315-4.567-1.867-6.293-.057l-7.328 9.985c-1.691 1.812-1.05 3.533.205 6.154l3.921 6.669a4.349 4.349 0 0 0 2.947 1.023c.047 0 .094-.008.188-.019h.054l2.98-2.935a5.243 5.243 0 0 1 7.4.057l1.816 1.845a5.169 5.169 0 0 1 1.17 1.845l.032.083.085-.023a5.355 5.355 0 0 1 1.436-.191 5.193 5.193 0 0 1 3.692 1.557l1.816 1.842a5.241 5.241 0 0 1 1.148 5.555l-.035.09.09.036a5.162 5.162 0 0 1 1.821 1.2l1.816 1.845a5.267 5.267 0 0 1 1.029 5.836l-.041.091.092.039a5.2 5.2 0 0 1 1.686 1.148l1.816 1.843a5.24 5.24 0 0 1 -.058 7.4l-.584.574 3.43 2.9a3.768 3.768 0 0 0 .518.405zm-11.357-.707h-.05a2.648 2.648 0 0 1 -1.854-.8l-1.814-1.844a2.67 2.67 0 0 1 .03-3.777l4.3-4.239a2.714 2.714 0 0 1 1.872-.764 2.674 2.674 0 0 1 1.907.794l1.815 1.843a2.676 2.676 0 0 1 -.029 3.778l-4.306 4.239a2.658 2.658 0 0 1 -1.877.771zm2.49-10.446a1.726 1.726 0 0 0 -1.19.483l-4.3 4.239a1.7 1.7 0 0 0 -.019 2.4l1.815 1.845a1.682 1.682 0 0 0 1.195.505h.042a1.689 1.689 0 0 0 1.163-.488l4.3-4.239a1.7 1.7 0 0 0 .019-2.4l-1.815-1.843a1.7 1.7 0 0 0 -1.211-.501zm-11.543 5.89a2.653 2.653 0 0 1 -1.9-.8l-1.816-1.844a2.674 2.674 0 0 1 .03-3.777l8.778-8.643a2.653 2.653 0 0 1 1.873-.767h.057a2.626 2.626 0 0 1 1.847.8l1.815 1.844a2.675 2.675 0 0 1 -.028 3.777l-8.779 8.643a2.655 2.655 0 0 1 -1.879.768zm6.973-14.852a1.69 1.69 0 0 0 -1.2.486l-8.779 8.643a1.7 1.7 0 0 0 -.018 2.4l1.816 1.844a1.739 1.739 0 0 0 2.4.018l8.778-8.642a1.7 1.7 0 0 0 .018-2.4l-1.815-1.844a1.686 1.686 0 0 0 -1.2-.505zm-15.678 9.986h-.085a2.627 2.627 0 0 1 -1.868-.793l-1.816-1.843a2.676 2.676 0 0 1 .029-3.777l.856-.815a4.275 4.275 0 0 0 .637-.517l9.649-9.5a4.22 4.22 0 0 0 .517-.619l.1-.121.938-.926a2.679 2.679 0 0 1 3.776.03l1.816 1.842a2.683 2.683 0 0 1 -.03 3.778l-12.693 12.5a2.623 2.623 0 0 1 -1.828.762zm-2.308-6.444-.752.726a1.7 1.7 0 0 0 -.014 2.4l1.816 1.843a1.655 1.655 0 0 0 1.173.5h.086a1.644 1.644 0 0 0 1.139-.484l12.693-12.5a1.708 1.708 0 0 0 .018-2.4l-1.815-1.842a1.707 1.707 0 0 0 -2.4-.019l-.945.942a4.9 4.9 0 0 1 -.609.725l-9.649 9.5a5.349 5.349 0 0 1 -.743.613zm-2.926-1.671h-.064a2.647 2.647 0 0 1 -1.839-.791l-1.816-1.845a2.674 2.674 0 0 1 .028-3.777l9.649-9.5a2.681 2.681 0 0 1 3.777.031l1.815 1.843a2.678 2.678 0 0 1 .5 3.037l-.082.167-10.682 10.51-.171.078a2.664 2.664 0 0 1 -1.117.249zm7.828-15.7a1.684 1.684 0 0 0 -1.185.482l-9.649 9.5a1.7 1.7 0 0 0 -.018 2.4l1.816 1.844a1.683 1.683 0 0 0 1.169.5h.054a1.671 1.671 0 0 0 .7-.161l.016-.006 10.441-10.289a1.7 1.7 0 0 0 -.313-1.927l-1.816-1.842a1.68 1.68 0 0 0 -1.217-.502zm58.862 7.823a5.346 5.346 0 0 1 -2.688-.723l-.193-.144-2.236-2.092-.475-.489c-8.088-8.329-13.371-13.754-15.7-16.123a4.423 4.423 0 0 0 -3.324-1.321c-2.108 0-4.521.987-6.853 1.943-5.049 2.066-7.352 2.575-8.548.364a3.922 3.922 0 0 1 .16-3.846c2.327-4.589 10.766-9.206 15.041-9.79 4.606-.625 15.142 2.434 18.814 3.666l.587.2 5.717-4.567a5.34 5.34 0 0 1 7.5.639l8.954 10.564a5.315 5.315 0 0 1 1.085 4.094 6.124 6.124 0 0 1 -2.024 3.922l-12.443 12.511a5.338 5.338 0 0 1 -3.378 1.19zm-2.175-1.552a4.387 4.387 0 0 0 4.909-.382l12.418-12.488a5.176 5.176 0 0 0 1.716-3.324 4.346 4.346 0 0 0 -.86-3.345l-8.954-10.564a4.366 4.366 0 0 0 -6.134-.517l-6.144 4.908-1.09-.367c-3.61-1.211-13.952-4.224-18.371-3.624-4.075.556-12.1 4.927-14.3 9.263a2.988 2.988 0 0 0 -.172 2.943c.685 1.266 1.855 1.435 7.322-.8 2.42-.991 4.922-2.015 7.223-2.015a5.353 5.353 0 0 1 4.019 1.611c2.331 2.371 7.615 7.8 15.7 16.127l.458.473z" transform="translate(-289.712 -4017.685)"/></g></svg>