<svg xmlns="http://www.w3.org/2000/svg" width="41.037" height="41.037" viewBox="0 0 41.037 41.037"><g transform="translate(1 1)"><path d="M19.519,0A19.519,19.519,0,1,1,0,19.519,19.519,19.519,0,0,1,19.519,0Z" fill="none" stroke="#fff" stroke-width="2"/><path d="M1550.981,52.991h3.241V63.4h-3.241Zm1.622-5.176a1.876,1.876,0,1,1-1.878,1.876,1.877,1.877,0,0,1,1.878-1.876" transform="translate(-1539.01 -37.701)" fill="#fff"/><path d="M1560.836,57.066h3.1v1.423h.044a3.4,3.4,0,0,1,3.063-1.682c3.276,0,3.883,2.155,3.883,4.959v5.711h-3.235V62.415c0-1.209-.024-2.762-1.683-2.762-1.685,0-1.942,1.315-1.942,2.673v5.151h-3.234Z" transform="translate(-1543.592 -41.776)" fill="#fff"/></g></svg>