<svg height="102.011" viewBox="0 0 81.609 102.011" width="81.609" xmlns="http://www.w3.org/2000/svg"><g fill="#20428c"><path d="m0 0h20.402v20.402h-20.402z" transform="matrix(0 1 -1 0 20.402 0)"/><path d="m0 0h20.402v20.402h-20.402z" transform="matrix(0 1 -1 0 20.402 20.402)"/><path d="m0 0h20.402v20.402h-20.402z" transform="matrix(0 1 -1 0 40.805 0)"/><path d="m0 0h20.402v20.402h-20.402z" transform="matrix(0 1 -1 0 40.805 20.402)"/><path d="m0 0h20.402v20.402h-20.402z" transform="matrix(0 1 -1 0 81.609 20.402)"/><path d="m0 0h20.402v20.402h-20.402z" transform="matrix(0 1 -1 0 20.402 40.805)"/><path d="m0 0h20.402v20.402h-20.402z" transform="matrix(0 1 -1 0 81.609 81.609)"/><path d="m0 0h20.402v20.402h-20.402z" transform="matrix(0 1 -1 0 61.207 61.207)"/></g></svg>