<svg height="220.21" viewBox="0 0 249.111 220.21" width="249.111" xmlns="http://www.w3.org/2000/svg"><g fill="#fff"><path d="m163.82 163.235h20.402v20.402h-20.402z"/><path d="m228.709 199.808h20.402v20.402h-20.402z"/><path d="m163.82 122.43h20.402v20.402h-20.402z"/><path d="m102.613 183.637h20.402v20.402h-20.402z"/><path d="m123.015 142.832h40.805v20.402h-40.805z"/><path d="m183.451 37.017v-61.491h-183.62v163.218h20.4v20.4h20.4v-20.4h20.4v-40.804h40.805v-20.4h-20.396v-20.4h20.4v20.4h20.4v-20.4h20.4v20.4h40.8v-20.4h-20.4v-20.123zm-142.816 81.325h-20.4v-20.402h20.4zm81.609-81.325h-20.4v-20.4h20.4zm20.4 0v-40.8h20.4v40.8z" transform="translate(.771 24.49)"/><path d="m0 0h143.418v143.418h-143.418z"/><path d="m102.613 122.43h20.402v20.402h-20.402z"/><path d="m61.809 163.235h20.402v20.402h-20.402z"/><path d="m123.015 102.028h20.402v20.402h-20.402z"/></g><g fill="#3a6ab0"><path d="m50.851 107.084c0-3.415 1.8-5.214 5.214-5.214h5.214v2.107h-5.214c-2 0-2.8.9-2.8 3.107v2.8h7.6v2.132h-7.6v9.118h-2.414z" transform="translate(-7.716 3.472)"/><path d="m67.49 101.87h2.388v19.263h-2.388z" transform="translate(-10.484 3.472)"/><path d="m75.932 101.87h1.592l10.453 14.254v-14.254h2.388v19.263h-1.592l-10.427-14.254v14.254h-2.414z" transform="translate(-11.888 3.472)"/><path d="m96.638 120.927c.823-3.415 1.413-5.316 2.209-8.013a84.022 84.022 0 0 1 4.212-11.044h3.21a77.194 77.194 0 0 1 4.212 11.044c.822 2.7 1.413 4.6 2.209 8.013v.206h-2.39c-.463-1.927-.823-3.314-1.207-4.726h-8.861c-.385 1.412-.719 2.8-1.181 4.726h-2.413zm4.212-6.627h7.629c-.129-.41-.232-.9-.386-1.386a53.215 53.215 0 0 0 -3.416-9.041 53.361 53.361 0 0 0 -3.415 9.041c-.155.486-.309.976-.412 1.386z" transform="translate(-15.333 3.472)"/><path d="m119.315 101.87h2.414v8.219h1.181l7.32-8.219h2.517v.206l-7.91 8.912 8.116 9.94v.206h-2.7l-7.449-9.041h-1.079v9.041h-2.414z" transform="translate(-19.106 3.472)"/><path d="m138.85 101.87h2.388v19.263h-2.388z" transform="translate(-22.355 3.472)"/><path d="m93.121 32.501h9.076v9.748h-9.076z"/></g><path d="m64.467 24.57-8.18-.038s2.52 26.923 10 40.954 15.513 16.037 25.647 8.607c0 0-8.487 4.424-14.84-6.221-9.243-15.491-10.663-28.623-12.627-43.302z" fill="#1a171b" transform="translate(-8.62 16.337)"/><path d="m95.285 26.039s-18.485 10.122-32.711 24.389c-15.528 15.572-30.821 44.752-33.364 57.318 0 0-.374 3.22 1.016.229 2.228-4.8 10.787-23.318 27.063-38.472a181.769 181.769 0 0 0 26.8-31.322c3.909-5.611 8.417-9.921 10.1-10.973s2.472-1.564 1.096-1.169z" fill="#1a171b" transform="translate(-4.108 16.109)"/></svg>