<svg height="177.97" viewBox="0 0 179.781 177.97" width="179.781" xmlns="http://www.w3.org/2000/svg"><path d="m197.221 5274.732a318.452 318.452 0 0 1 60.641-44.158c.029 1.022-.388 1.188-.7 1.375-7.364 4.455-12.888 10.848-18.048 17.528-4.994 6.466-9.584 13.241-14.435 19.819a294.54 294.54 0 0 1 -19.525 23.731 2.065 2.065 0 0 0 -.458 2.693c3.441 7.181 6.776 14.427 11.693 20.757 3.634 4.679 8.241 7.964 14.261 8.874a19.713 19.713 0 0 0 8.3-.576 1.814 1.814 0 0 1 1.3-.134 6.228 6.228 0 0 1 -2.143 1.614 35.031 35.031 0 0 1 -13.068 5.442c-7.72 1.312-14.133-1.4-19.724-6.51-5.5-5.025-9.372-11.256-12.9-17.73-.1-.176-.212-.345-.4-.643-5.161 5.01-10.406 9.833-15.348 14.948-16.782 17.369-30.072 37.2-40.879 58.735-1.342 2.675-2.591 5.4-3.891 8.093a13.4 13.4 0 0 1 -.8 1.5c-.184.284-.4.723-.8.613s-.348-.577-.362-.937c-.1-2.638.776-5.09 1.5-7.558 3.406-11.587 8.384-22.535 13.823-33.274 10.476-20.682 22.618-40.315 37.361-58.254a5.367 5.367 0 0 0 1.134-5.729 281.784 281.784 0 0 1 -8.777-42.13c-.6-4.3-1.074-8.622-1.664-12.925-.118-.858.1-1.074.93-1.062 4.608.064 9.217.107 13.825.093.908 0 .96.474 1.05 1.131.777 5.686 1.545 11.374 2.369 17.053a224.045 224.045 0 0 0 5.393 26.716c.081.286.208.554.342.905z" transform="translate(-129.929 -5212.753)"/><g fill="#fff"><path d="m242.569 5403.505v-14.287c0-3.626.034-7.252-.022-10.878-.016-1 .258-1.349 1.29-1.366 3.322-.056 3.321-.094 3.321 3.194 0 10.671.01 21.342-.025 32.013 0 .608.524 1.676-.565 1.775s-2.26.473-3.188-.836c-3.71-5.236-7.535-10.39-11.321-15.572q-3.618-4.95-7.24-9.9a4.251 4.251 0 0 1 -.3-.589 1.645 1.645 0 0 0 -.364 1.507c-.017 7.977-.043 15.954.013 23.931.008 1.22-.3 1.588-1.532 1.559-3.169-.075-3.17-.017-3.17-3.16 0-10.672-.011-21.342.027-32.014 0-.612-.534-1.691.5-1.8 1.075-.117 2.312-.554 3.24.734 3.749 5.208 7.574 10.359 11.369 15.534q3.626 4.945 7.239 9.9a1.864 1.864 0 0 1 .168.618z" transform="translate(-144.806 -5237.387)"/><path d="m287.783 5414.031c-2.368-.017-2.359-.019-2.953-2.362-.483-1.9-1.032-3.79-1.467-5.7-.165-.726-.418-1.064-1.206-1.062q-7.534.03-15.069-.009c-.821 0-1.041.443-1.2 1.117-.518 2.213-1.11 4.41-1.6 6.629-.216.984-.544 1.45-1.706 1.428-3.5-.063-3.517 0-2.63-3.472a197.523 197.523 0 0 1 10.839-32.124 2.152 2.152 0 0 1 2.328-1.494c4.824.067 4.825.025 6.709 4.51a213.842 213.842 0 0 1 9.98 30.931c.409 1.619.386 1.625-2.025 1.608zm-13.118-33c-3.2 6.321-5.149 12.729-7.105 19.137-.208.681.25.639.672.639 4.243 0 8.486-.013 12.729.014.765 0 .863-.28.676-.925a110.557 110.557 0 0 0 -6.972-18.869z" transform="translate(-151.478 -5237.397)"/><path d="m302.588 5395.477c0-5.7.027-11.4-.024-17.1-.01-1.082.29-1.407 1.381-1.407 3.365 0 3.365-.045 3.365 3.277 0 3.575-.017 7.149.017 10.724 0 .563-.368 1.421.36 1.643a2.222 2.222 0 0 0 2.535-.6c2.467-2.86 4.993-5.669 7.5-8.5 1.339-1.51 2.8-2.929 3.993-4.546a4.264 4.264 0 0 1 4.485-1.98c.7.121 1.736-.342 2.037.277.323.666-.673 1.15-1.126 1.665q-6.469 7.342-13 14.625c-.658.73-.654 1.163-.031 1.917q6.973 8.44 13.846 16.961c.325.4 1.079.768.689 1.39-.271.433-.961.114-1.453.2-2.632.449-4.341-.657-5.95-2.772-3.539-4.654-7.378-9.081-11.094-13.6-.131-.159-.27-.314-.4-.478-.548-.711-1.342-.554-2-.4s-.392.87-.393 1.346c-.016 4.817-.045 9.637.023 14.454.016 1.161-.291 1.5-1.466 1.481-3.289-.061-3.29-.006-3.29-3.346z" transform="translate(-158.648 -5237.387)"/><path d="m303.765 5219.131c0 2.692-.045 5.384.025 8.075.026.974-.266 1.224-1.214 1.215q-7.532-.067-15.064 0c-1.028.011-1.3-.293-1.293-1.308q.073-8.074 0-16.15c-.011-1.082.3-1.419 1.386-1.409q7.453.07 14.907-.009c1.082-.013 1.292.38 1.271 1.356-.057 2.742-.019 5.486-.018 8.23z" transform="translate(-155.929 -5209.543)"/><path d="m171.387 5398.7c.161-3.981-.3-8.907.216-13.811a8.16 8.16 0 0 1 7.887-7.734c3.667-.333 7.348-.059 11.021-.16.861-.024.994.355 1.011 1.113.071 3.067.1 3.063-2.928 3.063-2.537 0-5.074-.03-7.61.019-2.98.057-4.5 1.463-4.708 4.417-.126 1.8-.013 3.625-.123 5.431-.073 1.188.484 1.344 1.475 1.333 3.935-.039 7.87.023 11.8-.038 1.023-.016 1.285.282 1.27 1.283-.043 2.894 0 2.895-2.907 2.895-3.417 0-6.834.041-10.25-.023-1.109-.02-1.4.362-1.391 1.424.047 4.917-.007 9.837.043 14.754.012 1.092-.323 1.4-1.409 1.4-3.4-.025-3.4.019-3.4-3.4.004-3.68.003-7.356.003-11.966z" transform="translate(-136.82 -5237.399)"/><path d="m340.044 5395.679c0-5.7.032-11.4-.027-17.093-.012-1.19.271-1.626 1.531-1.607 3.078.046 3.078-.014 3.079 3.11 0 10.825-.012 21.652.033 32.478 0 1.121-.208 1.526-1.43 1.5-3.181-.075-3.185-.009-3.186-3.156q-.003-7.617 0-15.232z" transform="translate(-164.879 -5237.397)"/><path d="m203.335 5395.542c0-5.689.032-11.378-.028-17.066-.012-1.146.271-1.507 1.451-1.494 3.252.036 3.252-.019 3.253 3.255 0 10.757-.021 21.515.031 32.273.006 1.246-.346 1.573-1.559 1.55-3.15-.06-3.15 0-3.149-3.157q.003-7.681.001-15.361z" transform="translate(-142.136 -5237.398)"/></g></svg>