<svg height="166.137" viewBox="0 0 167.878 166.137" width="167.878" xmlns="http://www.w3.org/2000/svg"><g fill="#3a6ab0"><path d="m1377.224 3949.751c0-6.111 3.217-9.328 9.328-9.328h9.328v3.768h-9.328c-3.585 0-5.009 1.609-5.009 5.56v5.01h13.6v3.814h-13.6v16.313h-4.319z" transform="translate(-1344.876 -3810.096)"/><path d="m1406.994 3940.423h4.273v34.464h-4.273z" transform="translate(-1349.829 -3810.096)"/><path d="m1422.1 3940.423h2.848l18.7 25.5v-25.5h4.274v34.464h-2.849l-18.656-25.5v25.5h-4.317z" transform="translate(-1352.341 -3810.096)"/><path d="m1459.146 3974.521c1.471-6.112 2.528-9.513 3.952-14.338a150.27 150.27 0 0 1 7.537-19.76h5.744a138.025 138.025 0 0 1 7.536 19.76c1.47 4.825 2.528 8.226 3.952 14.338v.367h-4.273c-.829-3.446-1.471-5.927-2.16-8.455h-15.854c-.689 2.528-1.286 5.009-2.113 8.455h-4.321zm7.537-11.857h13.648c-.23-.734-.413-1.608-.69-2.481a95.222 95.222 0 0 0 -6.111-16.175 95.364 95.364 0 0 0 -6.112 16.175c-.276.873-.552 1.746-.735 2.481z" transform="translate(-1358.504 -3810.096)"/><path d="m1499.72 3940.423h4.32v14.705h2.113l13.1-14.705h4.5v.368l-14.154 15.946 14.52 17.784v.367h-4.819l-13.327-16.175h-1.93v16.175h-4.32z" transform="translate(-1365.254 -3810.096)"/><path d="m1534.672 3940.423h4.274v34.464h-4.274z" transform="translate(-1371.069 -3810.096)"/><path d="m121.782 0h16.24v17.441h-16.24z"/></g><path d="m1401.585 3802.116-14.635-.067s4.508 48.172 17.9 73.276 27.743 28.693 45.881 15.4c0 0-15.187 7.916-26.552-11.13-16.539-27.717-19.079-51.214-22.594-77.479z" fill="#1a171b" transform="translate(-1346.494 -3787.076)"/><path d="m1456.726 3804.746s-33.066 18.11-58.527 43.635c-27.782 27.855-55.145 80.072-59.7 102.554 0 0-.67 5.762 1.818.409 3.987-8.583 19.3-41.72 48.421-68.833 25.044-23.317 39.162-43.429 47.951-56.042 7-10.04 15.062-17.751 18.073-19.634s4.425-2.796 1.964-2.089z" fill="#1a171b" transform="translate(-1338.421 -3787.485)"/></svg>