<svg height="60.072" viewBox="0 0 59.637 60.072" width="59.637" xmlns="http://www.w3.org/2000/svg"><path d="m891.025 528.1-6.791-3.526-.08.785-10.854-2.465.094-1.584-1.778-.765 4.266-15.378-.823-1.394.734-.826-.39-2.211-4.4-4.687.777-.946-.721-1.426-1.273-.161-.048-1.466-2.478-.658-.034.465-6.08-2.669.053-.721-1.457-1.064.2-.49 1.794-.2-1.336-1.291-.619-.046-.036-1.575 4.126-1.172.1.323 1.242.157.827-1.129 1.358.078.477-.135 1.717 2.44 2.014-.674.188.309 1.742-.607.07.572 1.125-.019-1.559-7.582 3.172.3.634 2.3 5.424-.027-.365-.6 6.8-4.677 3.086-5.418 1.63-.213 1.2 1.981 1.488-.367.854 1.783.437-.2 3.4 1.825-.088 2.037 2.758-1.454.3.174.087 2.355 8.6 3.91.448-.357 6.243 1.475-3 11.057-1.71.726-4.07 6.368 3.213-.146 1.543 3.28-1.023 1.277 1.767 3.349-2.273 1.343 2.219 2.8-.713 2.092 4.154 1.8-4.736 5.939-2.9 1.936-6.26-2.184-1.785.185-2.521-1.222-4.838 3.691.606 3.948z" fill="#fff" transform="translate(-859.747 -468.028)"/></svg>