<svg height="72.318" viewBox="0 0 65.754 72.318" width="65.754" xmlns="http://www.w3.org/2000/svg"><path d="m921.1 540.962h1.667l-2.814 4.585 1.25 3.647-.417 1.876-1.771-.834-1.876.729-2.5-2.605h-1.876l-.834-.834-6.669-2.5-.313.625-1.042-1.98.834-2.084.834-.521 1.771.417.729-.834.938 1.042 7.5.729 1.98-1.459zm-31.678-57.625-1.876 3.751-3.439-2.605-2.709.1-3.748 2.817h-.834v2.293l-1.771.834.1 6.252 1.042.521.834 1.667 3.126.625 2.4-1.459.729-1.563 1.876-.1 7.086 2.814.729.729 1.563 5-.208 1.459 3.96 4.481h1.146l7.4 7.815 11.879 4.064.834 2.4-.1 1.667 4.585.1 1.25 1.459 1.563 6.982-1.459 2.4.208.834-.938 1.876-.938.1.313 1.667h3.439l-.417-1.98 2.188-.625.417-2.084-.313-1.459 1.98-.938 1.563.208.625-.208-.834-4.689-3.022-.938-.1-1.459 2.4-3.751.729.729 3.647.521 2.4 3.439.521-.1 1.563-2.188-2.188-3.751-13.976-5.844 1.876-.729.729-1.355-.521-.417h-5.523l-1.98-1.459-1.876.1-2.709-4.064.1-2.709-.834-1.459-1.25-.208-.1-2.188-5.94-3.751-1.876-3.335-.1-1.355a1.251 1.251 0 0 0 1.563-.938 13.938 13.938 0 0 0 -.1-4.168l7.294-.521 1.563-.834-1.355-3.126.208-2.918-6.878-1.042-2.084-1.98-9.378 1.98-2.605 3.126-3.439-.521z" fill="#fff" transform="translate(-875.045 -478.751)"/></svg>