<svg height="53.809" viewBox="0 0 53.924 53.809" width="53.924" xmlns="http://www.w3.org/2000/svg"><path d="m917.554 479.256-7.343-1.377-7 7.572-1.491.115-1.72-1.491-2.754.344-.115 2.868-5.507 3.786 1.721 1.377-.688 2.409-4.7 3.557.574 2.295-.918 1.377-2.868.115-.115 2.295 1.491 1.721.115 1.836-2.18 1.95 1.721 1.033 1.147 4.016 8.6 2.065-2.754 10.326 6.081 1.377 3.213-1.377 2.066 3.555 19.045-.688.688-1.033v-3.1l3.327-1.95 1.262-2.754-6.654-8.49 2.18-2.754 2.065-.229v-1.95l11.932-3.557-1.606-2.065 1.606-2.639v-5.507l-3.327-4.475 3.327-4.933-5.048-2.754-1.491-2.868-3.442-2.065-10.441 2.065z" fill="#fff" transform="translate(-884.052 -477.191)"/></svg>