<svg height="81.609" viewBox="0 0 122.414 81.609" width="122.414" xmlns="http://www.w3.org/2000/svg"><g fill="#fff"><path d="m0 0h20.402v20.402h-20.402z" transform="matrix(-1 0 0 -1 122.414 20.402)"/><path d="m0 0h20.402v20.402h-20.402z" transform="matrix(-1 0 0 -1 102.011 20.402)"/><path d="m0 0h20.402v20.402h-20.402z" transform="matrix(-1 0 0 -1 122.414 40.805)"/><path d="m0 0h20.402v20.402h-20.402z" transform="matrix(-1 0 0 -1 102.011 40.805)"/><path d="m0 0h20.402v20.402h-20.402z" transform="matrix(-1 0 0 -1 122.414 61.207)"/><path d="m0 0h20.402v20.402h-20.402z" transform="matrix(-1 0 0 -1 102.011 81.609)"/><path d="m0 0h20.402v20.402h-20.402z" transform="matrix(-1 0 0 -1 81.609 20.402)"/><path d="m0 0h20.402v20.402h-20.402z" transform="matrix(-1 0 0 -1 81.609 61.207)"/><path d="m0 0h20.402v20.402h-20.402z" transform="matrix(-1 0 0 -1 40.805 40.805)"/><path d="m0 0h20.402v20.402h-20.402z" transform="matrix(-1 0 0 -1 20.402 81.609)"/></g></svg>