<svg height="84.623" viewBox="0 0 72.379 84.623" width="72.379" xmlns="http://www.w3.org/2000/svg"><g fill="#fff"><path d="m181.408 3796.553a1.584 1.584 0 0 0 .21-.022 43.817 43.817 0 0 0 1.771 6.557c3.69 10.2 9.827 12.337 14.326 12.337 9.653 0 14.258-9.5 16.106-18.949a1.6 1.6 0 0 0 .458.077c1.718 0 3.111-2.855 3.111-6.377 0-3.2-1.148-5.833-2.643-6.3-.978-7.975-8.241-14.19-17.032-14.19-8.832 0-16.123 6.272-17.047 14.3-1.36.682-2.371 3.189-2.371 6.188.003 3.526 1.393 6.379 3.111 6.379zm16.307-22.509c7.053 0 12.792 5.234 12.792 11.669 0 8.771-2.673 25.357-12.792 25.357-4.517 0-7.958-3.184-10.23-9.463a50.613 50.613 0 0 1 -2.562-15.894c0-6.435 5.738-11.669 12.792-11.669z" transform="translate(-161.395 -3769.688)"/><path d="m227.952 3835.408c-.619-.334-14.125-7.538-29.385-8.778v3.881a2.178 2.178 0 0 0 -1.179 2.348l3.37 18.218-6.567 7.143-6.567-7.143 3.369-18.218a2.177 2.177 0 0 0 -.721-2.045v-4.214c-15.43 1.141-29.176 8.473-29.8 8.811a4.665 4.665 0 0 0 -2.449 4.106v17.421a4.666 4.666 0 0 0 4.666 4.667h19.411l-1.448-4.667h-17.964v-17.421a81.49 81.49 0 0 1 24.138-7.848 2.113 2.113 0 0 0 -.116.4l-3.567 19.287c0 .015 0 .029-.006.044-.007.039-.012.078-.016.118s-.007.069-.009.1 0 .068 0 .1 0 .077 0 .115 0 .061.007.091.007.081.012.12.01.061.016.091.013.076.023.113.018.067.027.1.019.067.031.1.026.072.04.107.023.058.037.087.034.072.053.107.028.056.044.083.039.064.059.1.038.058.058.087.041.055.062.082.05.062.077.092c.01.012.018.023.028.034l8.272 9a2.169 2.169 0 0 0 2.084 1.558c.051 0 .1 0 .153-.008s.1.008.153.008a2.171 2.171 0 0 0 2.085-1.558l8.271-9c.01-.011.019-.022.028-.034.027-.03.052-.061.077-.092s.042-.054.062-.082.039-.058.058-.087.041-.063.059-.1.03-.055.045-.083.036-.071.053-.107.024-.058.036-.087.028-.071.04-.107.021-.066.031-.1.019-.066.027-.1.016-.075.023-.113.012-.06.016-.091.009-.08.012-.12.005-.061.006-.091 0-.077 0-.115 0-.068 0-.1-.005-.068-.009-.1-.009-.078-.016-.118c0-.015 0-.029-.006-.044l-3.567-19.287a2.127 2.127 0 0 0 -.118-.408 81.481 81.481 0 0 1 24.181 7.855v17.421h-18.348l-1.811 4.667h20.152a4.666 4.666 0 0 0 4.667-4.667v-17.421a4.665 4.665 0 0 0 -2.45-4.108z" transform="translate(-158.022 -3779.155)"/></g></svg>