<svg height="71.51" viewBox="0 0 72.827 71.51" width="72.827" xmlns="http://www.w3.org/2000/svg"><g fill="#fff"><path d="m609.11 4053.71a16.719 16.719 0 0 1 3.907.462l-8.651 8.782a3.6 3.6 0 0 0 .038 5.075l5.829 5.741a3.6 3.6 0 0 0 5.075-.039l9.089-9.227a14.706 14.706 0 0 1 .712 4.531c0 8.465-7.164 15.326-16 15.326a16.619 16.619 0 0 1 -4.732-.682l-27.869 30.6a7.343 7.343 0 0 1 -5.149 2.081 7.142 7.142 0 0 1 -7.253-7.027 6.908 6.908 0 0 1 2.353-5.172l27.491-30.224a14.7 14.7 0 0 1 -.842-4.905c0-8.465 7.163-15.326 16-15.326m-37.578 58.018a2.841 2.841 0 1 0 -2.841-2.841 2.841 2.841 0 0 0 2.841 2.841m37.578-62.21c-11.134 0-20.192 8.756-20.192 19.519a18.858 18.858 0 0 0 .383 3.788l-25.81 28.376a11.138 11.138 0 0 0 -3.576 8.137 11.347 11.347 0 0 0 11.445 11.22 11.489 11.489 0 0 0 8.079-3.274c.058-.057.115-.116.169-.176l26.233-28.807a20.934 20.934 0 0 0 3.268.256c11.134 0 20.193-8.757 20.193-19.52a18.911 18.911 0 0 0 -.914-5.819 4.192 4.192 0 0 0 -6.977-1.655l-8.666 8.8-4.969-4.894 8.227-8.351a4.192 4.192 0 0 0 -2.001-7.014 20.912 20.912 0 0 0 -4.888-.578z" transform="translate(-556.476 -4049.518)"/><path d="m609.576 4098.488 16.331 12.846a6.589 6.589 0 0 1 0 9.29l-1.745 1.744a6.587 6.587 0 0 1 -9.29 0l-12.556-16.62zm0-4.193a4.185 4.185 0 0 0 -2.966 1.228l-7.26 7.26a4.194 4.194 0 0 0 -.381 5.492l12.556 16.62a4.216 4.216 0 0 0 .381.438 10.782 10.782 0 0 0 15.219 0l1.745-1.745a10.781 10.781 0 0 0 0-15.219 4.03 4.03 0 0 0 -.373-.33l-16.33-12.847a4.178 4.178 0 0 0 -2.591-.9z" transform="translate(-562.832 -4056.967)"/><path d="m566.861 4056.732 4.413 4.413 1.31 4.365-.382.382 12.688 12.688-3.059 3.06-12.689-12.689-.382.382-4.364-1.309-4.413-4.414zm0-4.193a4.18 4.18 0 0 0 -2.964 1.228l-6.879 6.878a4.193 4.193 0 0 0 0 5.93l4.413 4.413a4.2 4.2 0 0 0 1.76 1.051l4.365 1.309.078.023 11.233 11.233a4.192 4.192 0 0 0 5.929 0l3.059-3.06a4.192 4.192 0 0 0 0-5.929l-11.233-11.232-.022-.078-1.31-4.365a4.188 4.188 0 0 0 -1.051-1.76l-4.413-4.413a4.179 4.179 0 0 0 -2.964-1.228z" transform="translate(-555.789 -4050.021)"/></g></svg>