<svg height="96.91" viewBox="0 0 94.723 96.91" width="94.723" xmlns="http://www.w3.org/2000/svg"><g fill="#fff"><path d="m474.612 3767.009a10.368 10.368 0 1 0 -10.369-10.368 10.38 10.38 0 0 0 10.369 10.368zm0-16.532a6.164 6.164 0 1 1 -6.164 6.164 6.163 6.163 0 0 1 6.164-6.164z" transform="translate(-427.716 -3746.272)"/><path d="m487.947 3776.773h-32.022a7.286 7.286 0 0 0 -7.278 7.278v25.794a7.287 7.287 0 0 0 7.278 7.278h2.6v23.855a7.286 7.286 0 0 0 7.278 7.278h.622a7.26 7.26 0 0 0 5.514-2.536 7.264 7.264 0 0 0 5.515 2.536h.622a7.286 7.286 0 0 0 7.278-7.278v-23.855h2.6a7.287 7.287 0 0 0 7.278-7.278v-25.794a7.286 7.286 0 0 0 -7.285-7.278zm3.073 33.072a3.077 3.077 0 0 1 -3.073 3.073h-2.6v-22.062h-4.2v50.123a3.076 3.076 0 0 1 -3.073 3.073h-.622a3.076 3.076 0 0 1 -3.073-3.073v-26.511h-4.883v26.511a3.076 3.076 0 0 1 -3.073 3.073h-.623a3.076 3.076 0 0 1 -3.073-3.073v-50.123h-4.2v22.062h-2.6a3.077 3.077 0 0 1 -3.073-3.073v-25.794a3.076 3.076 0 0 1 3.073-3.073h32.023a3.076 3.076 0 0 1 3.073 3.073z" transform="translate(-425.122 -3751.346)"/><path d="m442.6 3771.593a8.77 8.77 0 1 0 -8.77-8.77 8.779 8.779 0 0 0 8.77 8.77zm0-13.334a4.565 4.565 0 1 1 -4.565 4.564 4.565 4.565 0 0 1 4.565-4.564z" transform="translate(-422.658 -3747.567)"/><path d="m507.489 3771.593a8.77 8.77 0 1 0 -8.77-8.77 8.779 8.779 0 0 0 8.77 8.77zm0-13.334a4.565 4.565 0 1 1 -4.565 4.564 4.564 4.564 0 0 1 4.565-4.564z" transform="translate(-433.451 -3747.567)"/><path d="m439.152 3821.78v11.32a2.763 2.763 0 0 1 -2.76 2.76h-.559a2.763 2.763 0 0 1 -2.76-2.76v-43.079h-3.773v17.879h-2.333a2.763 2.763 0 0 1 -2.759-2.76v-18.963a2.763 2.763 0 0 1 2.759-2.76h13.411v-3.777h-13.414a6.545 6.545 0 0 0 -6.537 6.537v18.963a6.544 6.544 0 0 0 6.537 6.537h2.336v21.423a6.545 6.545 0 0 0 6.537 6.537h.559a7.929 7.929 0 0 0 4.953-2.277 20.416 20.416 0 0 0 2.121-3.055 10.429 10.429 0 0 1 .072-1.2v-11.325h-4.385z" transform="translate(-420.427 -3751.823)"/><path d="m522.9 3779.252h-13.406v3.777h13.406a2.763 2.763 0 0 1 2.759 2.76v18.963a2.763 2.763 0 0 1 -2.759 2.76h-2.333v-17.875h-3.776v43.079a2.763 2.763 0 0 1 -2.76 2.76h-.559a2.763 2.763 0 0 1 -2.76-2.76v-11.325h-4.385v11.325a10.427 10.427 0 0 1 .072 1.2 20.42 20.42 0 0 0 2.121 3.054 7.929 7.929 0 0 0 4.953 2.278h.559a6.545 6.545 0 0 0 6.537-6.537v-21.428h2.331a6.544 6.544 0 0 0 6.537-6.536v-18.957a6.545 6.545 0 0 0 -6.537-6.538z" transform="translate(-434.718 -3751.759)"/></g></svg>