<svg xmlns="http://www.w3.org/2000/svg" width="41.037" height="41.037" viewBox="0 0 41.037 41.037"><g transform="translate(1 1)"><circle cx="19.519" cy="19.519" r="19.519" fill="none" stroke="#fff" stroke-miterlimit="10" stroke-width="2"/><path d="M1502.8,55.509a7.725,7.725,0,0,1-2.23.612,3.889,3.889,0,0,0,1.707-2.148,7.771,7.771,0,0,1-2.464.943,3.886,3.886,0,0,0-6.616,3.54,11.02,11.02,0,0,1-8-4.057,3.889,3.889,0,0,0,1.2,5.184,3.872,3.872,0,0,1-1.758-.486v.049a3.886,3.886,0,0,0,3.114,3.807,3.922,3.922,0,0,1-1.023.137,3.877,3.877,0,0,1-.73-.07,3.886,3.886,0,0,0,3.626,2.7,7.79,7.79,0,0,1-4.822,1.662,7.891,7.891,0,0,1-.925-.055,11.042,11.042,0,0,0,17-9.3c0-.168,0-.335-.011-.5A7.9,7.9,0,0,0,1502.8,55.509Z" transform="translate(-1473.921 -40.97)" fill="#fff"/></g></svg>