<svg xmlns="http://www.w3.org/2000/svg" width="41.037" height="41.037" viewBox="0 0 41.037 41.037"><g transform="translate(1 1)"><circle cx="19.519" cy="19.519" r="19.519" fill="none" stroke="#fff" stroke-miterlimit="10" stroke-width="2"/><path d="M623.067,302.474a2.254,2.254,0,0,0-1.586-1.6,65.289,65.289,0,0,0-14.02,0,2.254,2.254,0,0,0-1.586,1.6,25.378,25.378,0,0,0,0,8.693,2.254,2.254,0,0,0,1.586,1.6,65.294,65.294,0,0,0,14.02,0,2.254,2.254,0,0,0,1.586-1.6,25.382,25.382,0,0,0,0-8.693Zm-10.431,7.014v-5.336l4.69,2.668Z" transform="translate(-594.606 -286.901)" fill="#fff"/></g></svg>